<svg xmlns="http://www.w3.org/2000/svg" xmlns:svg="http://www.w3.org/2000/svg" id="svg10" x="0" y="0" version="1.1" viewBox="0 0 48 48" xml:space="preserve"><metadata id="metadata16"/><title id="title2">chat 46</title><g id="g8" class="nc-icon-wrapper" transform="matrix(0.97478584,0,0,0.97663303,2.0252142,4.9467339)"><path id="path4" fill="#75a7ff" d="M 45,8 H 14 c -1.105,0 -2,0.895 -2,2 v 24 c 0,1.105 0.895,2 2,2 h 11.697 l 11.748,7.832 C 37.612,43.943 37.806,44 38,44 38.162,44 38.324,43.961 38.472,43.882 38.797,43.708 39,43.369 39,43 v -7 h 6 c 1.105,0 2,-0.895 2,-2 V 10 C 47,8.895 46.105,8 45,8 Z"/><path id="path6" fill="#fff" d="M 37,2 H 3 C 1.895,2 1,2.895 1,4 v 24 c 0,1.105 0.895,2 2,2 h 6 v 9 c 0,0.375 0.209,0.718 0.542,0.89 C 9.687,39.964 9.844,40 10,40 c 0.205,0 0.408,-0.062 0.581,-0.187 L 24.32,30 H 37 c 1.105,0 2,-0.895 2,-2 V 4 C 39,2.895 38.105,2 37,2 Z"/></g></svg>