<?xml version="1.0" encoding="UTF-8" standalone="no"?>
<svg
   xmlns:dc="http://purl.org/dc/elements/1.1/"
   xmlns:cc="http://creativecommons.org/ns#"
   xmlns:rdf="http://www.w3.org/1999/02/22-rdf-syntax-ns#"
   xmlns:svg="http://www.w3.org/2000/svg"
   xmlns="http://www.w3.org/2000/svg"
   xmlns:sodipodi="http://sodipodi.sourceforge.net/DTD/sodipodi-0.dtd"
   xmlns:inkscape="http://www.inkscape.org/namespaces/inkscape"
   inkscape:version="1.0 (4035a4fb49, 2020-05-01)"
   sodipodi:docname="chat-46.svg"
   id="svg10"
   xml:space="preserve"
   viewBox="0 0 48 48"
   y="0px"
   x="0px"
   version="1.1"><metadata
     id="metadata16"><rdf:RDF><cc:Work
         rdf:about=""><dc:format>image/svg+xml</dc:format><dc:type
           rdf:resource="http://purl.org/dc/dcmitype/StillImage" /></cc:Work></rdf:RDF></metadata><defs
     id="defs14" /><sodipodi:namedview
     inkscape:current-layer="svg10"
     inkscape:window-maximized="1"
     inkscape:window-y="-8"
     inkscape:window-x="-8"
     inkscape:cy="27.568772"
     inkscape:cx="24"
     inkscape:zoom="11.208333"
     showgrid="false"
     id="namedview12"
     inkscape:window-height="705"
     inkscape:window-width="1366"
     inkscape:pageshadow="2"
     inkscape:pageopacity="0"
     guidetolerance="10"
     gridtolerance="10"
     objecttolerance="10"
     borderopacity="1"
     bordercolor="#666666"
     pagecolor="#ffffff"
     inkscape:document-rotation="0" /><title
     id="title2">chat 46</title><g
     transform="matrix(0.97478584,0,0,0.97663303,2.0252142,4.9467339)"
     id="g8"
     class="nc-icon-wrapper"><path
   id="path4"
   d="M 45,8 H 14 c -1.105,0 -2,0.895 -2,2 v 24 c 0,1.105 0.895,2 2,2 h 11.697 l 11.748,7.832 C 37.612,43.943 37.806,44 38,44 38.162,44 38.324,43.961 38.472,43.882 38.797,43.708 39,43.369 39,43 v -7 h 6 c 1.105,0 2,-0.895 2,-2 V 10 C 47,8.895 46.105,8 45,8 Z"
   fill="#75a7ff" /> <path
   id="path6"
   d="M 37,2 H 3 C 1.895,2 1,2.895 1,4 v 24 c 0,1.105 0.895,2 2,2 h 6 v 9 c 0,0.375 0.209,0.718 0.542,0.89 C 9.687,39.964 9.844,40 10,40 c 0.205,0 0.408,-0.062 0.581,-0.187 L 24.32,30 H 37 c 1.105,0 2,-0.895 2,-2 V 4 C 39,2.895 38.105,2 37,2 Z"
   fill="#ffffff" /></g></svg>
